<svg width="49" height="44" viewBox="0 0 49 44" fill="none" xmlns="http://www.w3.org/2000/svg">
<rect x="0.4" y="0.4" width="48.2" height="43.2" rx="4.6" stroke="white" stroke-opacity="0.53" stroke-width="0.8"/>
<rect x="3.4" y="3.4" width="42.2" height="37.2" rx="4.6" stroke="white" stroke-opacity="0.72" stroke-width="0.8"/>
<rect x="6.4" y="6.4" width="36.2" height="31.2" rx="4.6" stroke="white" stroke-width="0.8"/>
<path d="M9.75633 21.8C9.75633 20.9333 9.90966 20.08 10.2163 19.24C10.5363 18.4 10.9963 17.64 11.5963 16.96C12.1963 16.28 12.9297 15.74 13.7963 15.34C14.663 14.9267 15.6497 14.72 16.7563 14.72C18.0497 14.72 19.1763 15.0067 20.1363 15.58C21.0963 16.1533 21.8097 16.9 22.2763 17.82L20.1563 19.28C19.9163 18.7467 19.603 18.3267 19.2163 18.02C18.8297 17.7133 18.4097 17.4933 17.9563 17.36C17.5163 17.2267 17.0897 17.16 16.6763 17.16C15.983 17.16 15.3763 17.3 14.8563 17.58C14.3497 17.86 13.923 18.2267 13.5763 18.68C13.2297 19.1333 12.9697 19.64 12.7963 20.2C12.6363 20.76 12.5563 21.32 12.5563 21.88C12.5563 22.72 12.7297 23.5067 13.0763 24.24C13.423 24.96 13.9097 25.5467 14.5363 26C15.163 26.4533 15.8897 26.68 16.7163 26.68C17.143 26.68 17.583 26.6067 18.0363 26.46C18.503 26.3133 18.9297 26.08 19.3163 25.76C19.703 25.44 20.003 25.0267 20.2163 24.52L22.4763 25.82C22.183 26.5267 21.723 27.1267 21.0963 27.62C20.4697 28.1 19.763 28.4733 18.9763 28.74C18.1897 28.9933 17.4097 29.12 16.6363 29.12C15.623 29.12 14.6963 28.9133 13.8563 28.5C13.0297 28.0733 12.3097 27.5133 11.6963 26.82C11.083 26.1133 10.603 25.3267 10.2563 24.46C9.92299 23.58 9.75633 22.6933 9.75633 21.8ZM27.0273 29V14.8H32.1873C33.7339 14.8 35.0273 15.12 36.0673 15.76C37.1073 16.3867 37.8873 17.24 38.4073 18.32C38.9273 19.3867 39.1873 20.5733 39.1873 21.88C39.1873 23.32 38.9006 24.5733 38.3273 25.64C37.7539 26.7067 36.9406 27.5333 35.8873 28.12C34.8339 28.7067 33.6006 29 32.1873 29H27.0273ZM36.4073 21.88C36.4073 20.96 36.2406 20.1533 35.9073 19.46C35.5739 18.7533 35.0939 18.2067 34.4673 17.82C33.8406 17.42 33.0806 17.22 32.1873 17.22H29.7873V26.58H32.1873C33.0939 26.58 33.8606 26.38 34.4873 25.98C35.1139 25.5667 35.5873 25.0067 35.9073 24.3C36.2406 23.58 36.4073 22.7733 36.4073 21.88Z" fill="white"/>
</svg>
